<svg width="300" height="299" viewBox="0 0 300 299" fill="none" xmlns="http://www.w3.org/2000/svg">
<path d="M99.7335 180.567C97.2329 182.317 95.3497 180.797 92.8587 180.569C86.6647 180 82.5551 184.439 82.015 190.311C82.394 190.731 88.9102 186.514 90.403 186.661C92.7557 186.893 95.9533 192.524 94.5641 194.447C93.6772 195.676 87.7599 197.93 87.5443 198.266C87.4767 198.373 87.4838 199.107 87.5138 199.145C88.0054 199.727 93.3689 199.884 94.3725 199.739C95.2401 199.613 98.5641 198.179 99.0365 197.536C100.002 196.212 99.9437 189.113 101.219 187.122L99.7335 180.567ZM133.29 155.373C124.808 155.948 115.141 158.944 107.782 163.152C104.989 164.749 103.216 165.269 102.573 168.619C98.4587 190.067 112.79 205.136 133.797 206.472C156.416 207.908 176.85 195.606 173.377 170.671C172.806 166.565 172.457 166.393 169.08 164.294C159.024 158.044 145.107 154.573 133.29 155.373ZM185.603 129.08C186.293 128.102 181.226 126.737 180.099 127.406C179.804 127.581 178.89 130.328 178.523 131.011C176.64 134.512 174.189 136.71 171.25 139.292L179.014 145.863C183.828 147.409 189.02 144.152 190.342 139.443C190.452 139.049 191.023 136.692 190.342 136.708C188.688 137.723 186.971 138.981 185.254 139.853C182.588 141.21 182.092 141.576 179.95 139.142C174.499 132.96 180.899 131.488 185.603 129.08ZM127.482 89.2715C121.637 89.586 114.025 90.486 108.465 92.246C106.182 92.9711 105.425 93.2021 104.081 95.1882C99.6749 101.704 95.5461 113.771 96.0725 121.62C97.8198 147.621 141.301 147.131 159.331 142.038C180.88 135.948 182.911 119.79 173.805 101.403C173.152 100.089 170.238 94.5986 169.396 93.92C168.651 93.3208 165.997 92.5563 164.954 92.2532C153.99 89.0758 138.908 88.6586 127.482 89.2715ZM171.241 92.8362C171.22 90.4627 169.234 89.0966 167.363 88.0242C155.787 81.3943 123.384 81.8908 110.75 85.9962C107.403 87.0824 103.303 88.9451 102.484 92.6823L111.576 89.5604C125.604 86.229 150.377 86.3692 164.219 90.2461C166.596 90.9103 168.925 91.9947 171.241 92.8362ZM179.489 80.6596L178.878 81.1096C181.94 86.1777 182.635 92.5957 177.973 96.9578C177.383 97.508 175.348 98.5339 175.262 98.6664C174.783 99.4244 176.792 102.795 177.192 103.814C179.419 109.451 181.337 115.492 181.035 121.636C180.993 122.471 180.314 125.126 180.434 125.546C180.642 126.278 182.382 125.982 183.18 126.176C184.305 126.446 187.769 127.572 187.762 128.938C187.757 130.248 179.69 132.78 179.308 134.244C178.864 135.953 181.463 139.972 183.446 139.284C185.138 138.699 189.544 135.06 191.008 134.925C192.304 135.125 192.094 136.774 192.033 137.781C191.675 143.644 186.043 148.549 180.106 147.67L182.796 151.535C189.755 162.742 187.35 174.132 175.978 180.868L175.217 185.439C176.408 185.066 177.365 184.336 178.331 183.59C184.066 179.156 191.224 169.982 194.774 163.662C209.537 137.405 203.766 101.982 181.081 82.1982C180.516 81.7064 179.524 81.4432 179.489 80.6596ZM95.4575 80.6554C95.2425 80.4244 92.7982 82.6207 92.5102 82.8911C70.6611 103.469 64.4413 135.408 78.6138 162.243C81.2335 167.201 84.9623 173.03 89.1491 176.804C91.2916 178.736 93.488 179.953 96.524 179.968C97.1395 179.97 97.1557 179.683 96.994 179.196C96.9431 179.04 94.7976 177.648 94.3743 177.231C83.2946 166.273 90.8844 151.185 100.493 142.48C101.149 141.888 104.357 139.776 104.299 139.284C90.2228 130.292 92.8539 113.083 99.1018 100.028C94.0449 97.095 91.9138 92.9293 92.8473 87.0335C93.2144 84.7047 94.779 82.8678 95.4575 80.6554ZM113.487 70.2972C112.528 70.7353 110.706 70.9245 109.917 71.3136C107.574 72.4726 104.086 74.3794 101.909 75.9621C101.534 76.2349 101.156 76.4378 101.268 76.9976C104.117 76.2068 106.068 76.4169 108.856 77.2632L113.487 70.2972ZM172.158 76.3865C172.794 75.7944 169.232 73.9527 168.857 73.7408C167.651 73.0599 160.402 69.3907 159.632 69.9941L164.818 76.8645C167.192 75.9084 169.653 75.8529 172.158 76.3865ZM143.132 79.7411L142.978 61.1566C142.099 59.3637 135.615 59.4497 133.835 59.6598C132.916 59.7672 130.071 60.324 130.064 61.3708L129.699 79.6014L129.227 80.0371C128.478 80.0395 128.825 76.1113 128.763 75.3259C128.483 71.6216 127.84 67.9542 128.153 64.2056L125.554 65.1146L125.096 80.3475C124.434 80.9837 124.27 78.6501 124.221 78.3309C123.678 74.7709 123.924 70.9406 123.575 67.3997C123.534 66.9844 123.431 66.3225 123.117 66.0337C117.054 69.3603 111.962 73.7778 109.405 80.3916C109.186 80.9628 107.986 84.5388 107.997 84.7698C108.028 85.4764 108.549 84.9799 108.75 84.9262C111.723 84.1193 114.205 83.1214 117.398 82.5694C129.365 80.5062 145.661 80.4895 157.555 82.8743C160.143 83.3918 162.589 84.2219 165.129 84.9166C165.548 84.432 164.009 80.0491 163.662 79.2261C162.175 75.7103 159.045 71.6962 156.028 69.402C155.235 68.7981 150.101 65.4715 149.549 66.0289L148.323 78.9766L147.411 79.7387L147.076 75.018L147.359 64.553L144.964 63.9001C144.396 69.0314 144.384 74.1628 143.738 79.2846C143.687 79.7017 143.537 80.24 143.132 79.7411ZM166.547 67.3693C166.659 67.4206 166.725 67.728 166.919 67.8193C198.789 82.872 214.622 117.077 205.015 151.327C200.589 167.103 189.797 181.473 176.334 190.682C175.914 193.624 176.881 196.634 177.047 199.608C177.229 202.891 177.147 206.947 176.668 210.19C176.436 211.756 174.825 216.354 175.365 217.433C175.547 217.795 176.132 217.881 176.331 218.14C178.307 220.716 178.066 223.092 174.46 223.525C171.307 223.903 158.951 223.79 156.264 222.76C153.703 221.779 154.238 219.193 153.68 217.112C153.13 215.051 150.501 208.661 148.536 207.896C147.595 207.527 143.78 208.516 142.381 208.605C137.495 208.913 132.525 208.514 127.69 207.954L127.302 208.05C125.442 210.361 123.854 212.941 123.047 215.834C122.062 219.363 123.19 221.891 118.944 223.015C115.616 223.896 106.274 223.839 102.629 223.527C99.4856 223.257 97.488 221.795 99.6048 218.664C99.9743 218.117 100.924 217.538 101.118 217.109C101.528 216.214 100.077 212.424 99.8198 211.097C99.0922 207.346 99.0317 203.574 99.1252 199.758C96.791 200.555 94.503 201.695 91.9371 201.599C90.5665 201.546 84.7539 200.273 85.112 198.426C85.3293 197.305 92.8305 194.605 93.4904 193.358C93.9605 192.468 91.7359 188.547 90.6557 188.234C89.1258 187.789 83.8509 191.447 82.0826 192.076C79.3856 192.755 81.0958 187.222 81.5587 186.052C82.003 184.933 82.7725 183.775 83.5515 182.86C84.3377 181.935 85.4509 181.403 85.9024 180.41C85.8437 180.017 83.7036 178.126 83.2593 177.578C71.2084 162.749 65.3982 146.46 66.4156 127.094C67.9545 97.8297 88.997 71.5631 117.396 63.989C120.923 63.0472 124.563 62.5764 128.104 61.7158C128.609 56.8064 138.148 57.4122 141.556 58.3098C144.571 59.1047 143.495 59.4473 144.814 61.1542C145.617 62.1962 146.517 61.5785 147.546 61.7814C153.979 63.0562 160.477 64.5715 166.547 67.3693Z" fill="black"/>
<path d="M133.29 155.373C145.107 154.573 159.024 158.044 169.08 164.294C172.457 166.393 172.806 166.565 173.377 170.671C176.85 195.606 156.416 207.908 133.797 206.472C112.79 205.136 98.4586 190.067 102.573 168.619C103.216 165.269 104.989 164.749 107.782 163.152C115.141 158.944 124.808 155.949 133.29 155.373Z" fill="white"/>
<path d="M137.694 122.142C137.792 121.975 140.429 120.52 140.964 120.075C146.945 115.121 140.974 113.27 135.951 113.556C132.277 113.764 127.414 115.104 131.395 119.31C133.091 121.103 137.919 121.835 135.313 124.798C133.963 126.33 131.056 126.29 129.39 125.267C128.268 124.579 127.55 122.077 126.331 123.448C128.001 128.069 133.269 128.791 136.863 125.835C140.463 128.982 146.683 127.843 147.869 122.993C147.165 121.842 145.523 124.668 144.569 125.19C142.695 126.215 139.472 126.327 138.063 124.542C137.624 123.982 137.35 122.73 137.694 122.142ZM108.112 120.727C119.678 129.316 134.045 104.817 126.474 98.0183C120.284 92.4609 109.331 103.364 106.608 108.673C104.622 112.547 104.278 117.881 108.112 120.727ZM163.733 103.677C160.287 99.9723 153.504 94.0902 148.162 97.0933C139.531 101.944 150.681 120.784 158.596 121.741C165.473 122.576 170.142 117.512 168.345 110.806C167.628 108.132 165.574 105.658 163.733 103.677ZM127.482 89.2716C138.908 88.6586 153.99 89.0758 164.954 92.2532C165.997 92.5564 168.651 93.3209 169.393 93.9201C170.238 94.5986 173.152 100.089 173.805 101.403C182.911 119.79 180.88 135.948 159.331 142.038C141.299 147.131 97.8197 147.621 96.0724 121.62C95.5461 113.771 99.6748 101.707 104.081 95.1883C105.425 93.2021 106.182 92.9712 108.465 92.2484C114.025 90.4861 121.637 89.5861 127.482 89.2716Z" fill="white"/>
<path d="M95.4575 80.6554C94.779 82.8678 93.2143 84.7047 92.8473 87.0359C91.9137 92.9293 94.0449 97.095 99.1018 100.028C92.8539 113.083 90.2227 130.292 104.299 139.287C104.357 139.776 101.148 141.888 100.493 142.48C90.8844 151.185 83.2946 166.276 94.3742 177.231C94.7976 177.648 96.9431 179.04 96.994 179.196C97.1557 179.683 97.1395 179.97 96.5239 179.968C93.488 179.953 91.2916 178.736 89.1491 176.804C84.9622 173.03 81.2335 167.201 78.6137 162.243C64.4413 135.408 70.661 103.469 92.5101 82.8934C92.7982 82.6225 95.2425 80.4244 95.4575 80.6554Z" fill="#5A5A5A"/>
<path d="M179.489 80.6597C179.524 81.4433 180.516 81.7065 181.081 82.1982C203.766 101.982 209.537 137.405 194.777 163.662C191.224 169.982 184.067 179.156 178.331 183.59C177.365 184.336 176.408 185.066 175.22 185.439L175.978 180.868C187.35 174.132 189.755 162.742 182.796 151.535L180.106 147.67C186.045 148.551 191.675 143.644 192.033 137.781C192.094 136.774 192.304 135.125 191.008 134.925C189.544 135.06 185.138 138.699 183.446 139.285C181.463 139.972 178.864 135.953 179.308 134.245C179.69 132.78 187.758 130.248 187.762 128.938C187.769 127.572 184.305 126.446 183.18 126.176C182.382 125.982 180.642 126.281 180.434 125.546C180.314 125.127 180.993 122.474 181.035 121.636C181.337 115.492 179.419 109.451 177.192 103.814C176.789 102.795 174.783 99.4245 175.262 98.6689C175.349 98.534 177.386 97.5081 177.973 96.9579C182.635 92.5958 181.94 86.1777 178.878 81.1097L179.489 80.6597Z" fill="#5A5A5A"/>
<path d="M143.132 79.7411C143.537 80.2401 143.687 79.6994 143.738 79.2846C144.384 74.1628 144.396 69.0314 144.964 63.9001L147.359 64.553L147.076 75.018L147.411 79.7387L148.323 78.9766L149.549 66.0313C150.101 65.4715 155.235 68.7981 156.028 69.4021C159.045 71.6986 162.175 75.7103 163.66 79.2261C164.009 80.0467 165.548 84.432 165.129 84.9166C162.589 84.222 160.143 83.3918 157.555 82.8744C145.661 80.4895 129.365 80.5062 117.398 82.5694C114.205 83.1214 111.723 84.1193 108.75 84.9262C108.549 84.9799 108.028 85.4764 107.997 84.7698C107.986 84.5389 109.183 80.9604 109.405 80.3916C111.962 73.7778 117.054 69.3603 123.117 66.0337C123.431 66.3225 123.534 66.9844 123.575 67.3998C123.924 70.9406 123.678 74.7709 124.221 78.3309C124.27 78.6478 124.432 80.9837 125.096 80.3475L125.555 65.1146L128.156 64.2057C127.84 67.9542 128.483 71.6216 128.764 75.326C128.825 76.1113 128.478 80.0395 129.227 80.0371L129.699 79.6015L130.064 61.3708C130.071 60.324 132.916 59.7672 133.835 59.6598C135.615 59.4497 142.099 59.3638 142.978 61.1566L143.132 79.7411Z" fill="#FFF100"/>
<path d="M171.241 92.8363C168.925 91.9948 166.596 90.9104 164.219 90.2462C150.377 86.3693 125.604 86.229 111.576 89.5604L102.484 92.6823C103.305 88.9451 107.403 87.0825 110.75 85.9963C123.384 81.8909 155.787 81.3943 167.363 88.0242C169.234 89.0967 171.22 90.4628 171.241 92.8363Z" fill="#A87C4F"/>
<path d="M99.7336 180.567L101.219 187.122C99.9438 189.113 100.002 196.212 99.0366 197.536C98.5641 198.179 95.2402 199.613 94.3725 199.739C93.3689 199.884 88.0054 199.727 87.5138 199.145C87.4839 199.107 87.4767 198.373 87.5444 198.266C87.7599 197.93 93.6773 195.676 94.5641 194.447C95.9533 192.524 92.7557 186.894 90.403 186.661C88.9102 186.514 82.3941 190.731 82.015 190.312C82.5551 184.439 86.6647 180 92.8587 180.569C95.3498 180.797 97.233 182.317 99.7336 180.567Z" fill="#29EFE0"/>
<path d="M185.603 129.08C180.899 131.488 174.499 132.959 179.95 139.142C182.092 141.576 182.588 141.207 185.254 139.853C186.971 138.981 188.688 137.723 190.342 136.708C191.023 136.694 190.452 139.046 190.342 139.443C189.02 144.152 183.827 147.409 179.011 145.863L171.25 139.292C174.189 136.71 176.639 134.512 178.523 131.011C178.89 130.327 179.804 127.581 180.099 127.406C181.226 126.737 186.293 128.101 185.603 129.08Z" fill="#29EFE0"/>
<path d="M172.158 76.3864C169.653 75.8528 167.192 75.9083 164.818 76.8644L159.63 69.994C160.402 69.3906 167.651 73.0598 168.857 73.7407C169.232 73.9526 172.794 75.7943 172.158 76.3864Z" fill="#5A5A5A"/>
<path d="M113.487 70.2971L108.856 77.263C106.068 76.4192 104.117 76.2067 101.268 76.9975C101.156 76.4377 101.534 76.2347 101.909 75.962C104.086 74.3793 107.574 72.4725 109.917 71.3111C110.706 70.922 112.528 70.7352 113.487 70.2971Z" fill="#5A5A5A"/>
<path d="M121.784 108.024L123.379 108.351C125.217 106.052 121.618 104.054 119.461 104.101C113.143 104.238 111.845 115.03 118.986 115.074C119.028 114.175 117.948 114.253 117.295 113.566C114.407 110.523 117.381 104.513 121.704 105.97L121.784 108.024ZM108.112 120.727C104.278 117.881 104.622 112.547 106.608 108.673C109.331 103.364 120.284 92.4609 126.474 98.0184C134.045 104.817 119.678 129.316 108.112 120.727Z" fill="black"/>
<path d="M154.744 114.767C162.294 114.878 160.737 103.215 153.394 104.136C151.724 104.346 149.359 105.952 149.838 107.866C150.452 108.57 151.654 108.514 151.932 107.546C152.238 106.476 151.422 105.609 153.361 105.63C157.146 105.672 159.05 110.649 156.577 113.403C156.04 114.002 155.092 114.127 154.744 114.767ZM163.731 103.677C165.574 105.658 167.628 108.132 168.346 110.806C170.142 117.515 165.473 122.576 158.596 121.741C150.681 120.784 139.531 101.944 148.162 97.0933C153.504 94.0902 160.287 99.9723 163.731 103.677Z" fill="black"/>
<path d="M140.686 115.988C141.03 114.528 135.711 114.895 135.491 115.076C135.36 115.361 135.762 115.988 135.949 115.988H140.686ZM137.694 122.14C137.35 122.73 137.622 123.982 138.064 124.542C139.472 126.33 142.695 126.215 144.569 125.19C145.523 124.668 147.165 121.842 147.869 122.993C146.683 127.843 140.464 128.982 136.864 125.833C133.269 128.791 128.001 128.066 126.331 123.448C127.55 122.077 128.268 124.579 129.39 125.267C131.056 126.29 133.964 126.332 135.313 124.798C137.919 121.835 133.091 121.103 131.395 119.31C127.414 115.104 132.277 113.764 135.952 113.556C140.974 113.272 146.945 115.121 140.967 120.074C140.429 120.52 137.792 121.975 137.694 122.14Z" fill="black"/>
<path d="M121.784 108.024L121.704 105.97C117.381 104.513 114.407 110.523 117.295 113.566C117.948 114.253 119.028 114.174 118.986 115.074C111.845 115.03 113.143 104.238 119.461 104.101C121.618 104.054 125.217 106.052 123.379 108.351L121.784 108.024Z" fill="white"/>
<path d="M154.744 114.766C155.092 114.127 156.04 114.002 156.577 113.403C159.05 110.649 157.146 105.672 153.361 105.63C151.422 105.609 152.238 106.476 151.932 107.546C151.654 108.514 150.452 108.57 149.838 107.866C149.359 105.952 151.724 104.346 153.394 104.136C160.737 103.215 162.294 114.878 154.744 114.766Z" fill="white"/>
<path d="M140.686 115.988H135.949C135.762 115.988 135.36 115.361 135.491 115.076C135.711 114.895 141.03 114.528 140.686 115.988Z" fill="white"/>
<path d="M218.545 75.8326C218.953 76.2429 219.267 76.7383 219.462 77.2834C219.657 77.8286 219.73 78.4101 219.675 78.9866C219.397 81.6544 218.873 84.2907 218.108 86.8616C223.6 85.5897 226.955 84.1171 228.479 83.3454C229.343 82.9076 230.339 82.8039 231.275 83.054C233.957 83.772 236.723 84.1321 239.5 84.125C255.234 84.125 267.062 73.0724 267.062 60.5C267.062 47.9276 255.234 36.875 239.5 36.875C223.766 36.875 211.938 47.9315 211.938 60.5C211.938 66.2803 214.367 71.6431 218.545 75.8326ZM216.603 91.2086C215.67 91.3933 214.735 91.5626 213.796 91.7165C213.009 91.8425 212.41 91.0235 212.721 90.2911C213.07 89.4662 213.39 88.6297 213.682 87.7829L213.694 87.7436C214.67 84.9086 215.465 81.6483 215.757 78.6125C210.926 73.7694 208 67.43 208 60.5C208 45.2776 222.104 32.9375 239.5 32.9375C256.896 32.9375 271 45.2776 271 60.5C271 75.7224 256.896 88.0625 239.5 88.0625C236.38 88.0694 233.273 87.6643 230.259 86.8576C228.211 87.8932 223.805 89.7792 216.603 91.2086Z" fill="#BFF687"/>
<path d="M242.505 98C250.16 97.9988 257.597 95.4519 263.645 90.7602C269.694 86.0684 274.01 79.4983 275.915 72.0843C277.82 64.6702 277.204 56.8332 274.166 49.8071C271.128 42.781 265.84 36.9649 259.133 33.2744C252.427 29.5838 244.683 28.2285 237.122 29.4218C229.561 30.6151 222.611 34.2892 217.367 39.8656C212.123 45.4421 208.883 52.6042 208.156 60.2245C207.429 67.8447 209.257 75.4903 213.353 81.9575L208.005 98L224.048 92.6525C229.566 96.1548 235.969 98.01 242.505 98Z" fill="#84CD31" stroke="#84CD31" stroke-width="2" stroke-linecap="round" stroke-linejoin="round"/>
</svg>
